<svg version="1.2" xmlns="http://www.w3.org/2000/svg" viewBox="0 0 179 106" width="179" height="106">
	<title>New Project</title>
	<style>
		.s0 { fill: #7287ae } 
		.s1 { fill: #f2ce94 } 
		.s2 { fill: #ffffff } 
	</style>
	<g id="Design">
		<path id="Shape" class="s0" d="m170.2 101.6c0-2.4 2-4.4 4.4-4.4 2.4 0 4.4 2 4.4 4.4 0 2.4-2 4.4-4.4 4.4-2.4 0-4.4-2-4.4-4.4zm-42.5 0c0-2.4 1.9-4.4 4.4-4.4 2.4 0 4.3 2 4.3 4.4 0 2.4-1.9 4.4-4.3 4.4-2.5 0-4.4-2-4.4-4.4zm-42.6 0c0-2.4 2-4.4 4.4-4.4 2.4 0 4.4 2 4.4 4.4 0 2.4-2 4.4-4.4 4.4-2.4 0-4.4-2-4.4-4.4zm-42.5 0c0-2.4 1.9-4.4 4.3-4.4 2.5 0 4.4 2 4.4 4.4 0 2.4-1.9 4.4-4.4 4.4-2.4 0-4.3-2-4.3-4.4zm-42.6 0c0-2.4 2-4.4 4.4-4.4 2.4 0 4.4 2 4.4 4.4 0 2.4-2 4.4-4.4 4.4-2.4 0-4.4-2-4.4-4.4zm170.2-32.4c0-2.4 2-4.4 4.4-4.4 2.4 0 4.4 2 4.4 4.4 0 2.4-2 4.4-4.4 4.4-2.4 0-4.4-2-4.4-4.4zm-42.5 0c0-2.4 1.9-4.4 4.4-4.4 2.4 0 4.3 2 4.3 4.4 0 2.4-1.9 4.4-4.3 4.4-2.5 0-4.4-2-4.4-4.4zm-42.6 0c0-2.4 2-4.4 4.4-4.4 2.4 0 4.4 2 4.4 4.4 0 2.4-2 4.4-4.4 4.4-2.4 0-4.4-2-4.4-4.4zm-42.5 0c0-2.4 1.9-4.4 4.3-4.4 2.5 0 4.4 2 4.4 4.4 0 2.4-1.9 4.4-4.4 4.4-2.4 0-4.3-2-4.3-4.4zm-42.6 0c0-2.4 2-4.4 4.4-4.4 2.4 0 4.4 2 4.4 4.4 0 2.4-2 4.4-4.4 4.4-2.4 0-4.4-2-4.4-4.4zm170.2-32.4c0-2.4 2-4.4 4.4-4.4 2.4 0 4.4 2 4.4 4.4 0 2.4-2 4.4-4.4 4.4-2.4 0-4.4-2-4.4-4.4zm-42.5 0c0-2.4 1.9-4.4 4.4-4.4 2.4 0 4.3 2 4.3 4.4 0 2.4-1.9 4.4-4.3 4.4-2.5 0-4.4-2-4.4-4.4zm-42.6 0c0-2.4 2-4.4 4.4-4.4 2.4 0 4.4 2 4.4 4.4 0 2.4-2 4.4-4.4 4.4-2.4 0-4.4-2-4.4-4.4zm-42.5 0c0-2.4 1.9-4.4 4.3-4.4 2.5 0 4.4 2 4.4 4.4 0 2.4-1.9 4.4-4.4 4.4-2.4 0-4.3-2-4.3-4.4zm-42.6 0c0-2.4 2-4.4 4.4-4.4 2.4 0 4.4 2 4.4 4.4 0 2.4-2 4.4-4.4 4.4-2.4 0-4.4-2-4.4-4.4zm170.2-32.4c0-2.4 2-4.4 4.4-4.4 2.4 0 4.4 2 4.4 4.4 0 2.4-2 4.4-4.4 4.4-2.4 0-4.4-2-4.4-4.4zm-42.5 0c0-2.4 1.9-4.4 4.4-4.4 2.4 0 4.3 2 4.3 4.4 0 2.4-1.9 4.4-4.3 4.4-2.5 0-4.4-2-4.4-4.4zm-42.6 0c0-2.4 2-4.4 4.4-4.4 2.4 0 4.4 2 4.4 4.4 0 2.4-2 4.4-4.4 4.4-2.4 0-4.4-2-4.4-4.4zm-42.5 0c0-2.4 1.9-4.4 4.3-4.4 2.5 0 4.4 2 4.4 4.4 0 2.4-1.9 4.4-4.4 4.4-2.4 0-4.3-2-4.3-4.4zm-42.6 0c0-2.4 2-4.4 4.4-4.4 2.4 0 4.4 2 4.4 4.4 0 2.4-2 4.4-4.4 4.4-2.4 0-4.4-2-4.4-4.4z"/>
		<path id="Shape" class="s1" d="m503-1391.9c69.6 95 114.9 210.2 114.6 328-0.3 117.8-49.7 237.4-141.7 311.1-92 73.7-227.1 94.7-331.9 40.9-118.1-60.6-178.8-197.2-290.1-269.7-86.2-56.1-194.4-67.9-297.2-61.7-46.8 2.8-93.7 9-140.5 5.4-46.8-3.5-94.6-17.9-128.3-50.6-37.1-36.2-52.3-91-48.3-142.7 8.3-108.6 87.5-223.3 185.5-270 192.6-91.9 373.9-189 594.2-167.1 191.5 19 370.1 121.2 483.7 276.4z"/>
		<path id="Shape" class="s2" d="m-303-1087.9c-11.5-5.3-23.2-11.2-33.8-19.6-5.2-4.1-10-9-13.9-14.6-4-5.4-6.9-11.4-9.2-17.4-3.8-10.3-5.1-19.2-5.9-26-0.7-6.7-0.6-11.5-0.1-14.1 1.1-5.2 3.8-1.4 8.4 12.8 1.3 4.1 3.1 10 5.3 15.3 3 7.8 7 15.2 12 21.5 4.9 6.2 11.3 11.4 18.2 16 6.3 4.1 13.3 7.7 20.6 10.9 3.6 1.7 7.2 3.4 10.9 4.8 3.8 1.5 7.5 3 11.3 4.3 15.1 5.4 30.8 9.7 46.8 13.7 35 8.5 71 15.7 106.1 27.8 43.2 15 83.3 37.7 118.7 66.6 19.3 15.8 37 34.7 52.4 54.8 13.9 18.1 26.2 37.6 36.6 57.6 10.5 19.9 20 39.8 31 58.6 5.3 9 10.9 17.7 17 26 6 8.1 12.8 15.8 20.1 22.7 14.6 13.8 31.6 24.9 50.2 30.6 5.7 1.9 13.3 2.9 16.9 3.8 4.8 1.1 8.7 2.2 8.9 3.3 0.1 0.4-1.4 0.8-3.5 1.4-1.1 0.2-2.4 0.5-3.7 0.8-1.3 0.2-2.6 0.2-3.9 0.3-5.5 0.6-13-0.5-19.5-2-17.4-4.4-33.3-13.2-47.1-24.3-6.9-5.5-13.3-11.7-19.3-18.2-6-6.5-11.4-13.6-16.4-20.8-20-29-33.9-61.2-51.3-90.7-13.6-23.2-29.9-44.6-48.3-64.1-18.6-19.3-39-36.8-61.4-51.5-22.2-14.9-46.2-27-71.1-36.5-25-9.2-51.1-15.9-77.5-22.2-35.1-8.5-71.1-16.9-105.5-31.6z"/>
	</g>
</svg>